# xmcd CD database file
#
# Track frame offsets:
#	150
#	24589
#	44720
#	62849
#	80522
#	96047
#	114354
#	130632
#	146974
#	162466
#	171279
#	186626
#	207133
#	236173
#	262737
#	273597
#
# Disc length: 3873 seconds
#
# Revision: 0
# Processed by: cddbd v1.5.2PL0 Copyright (c) Steve Scherf et al.
# Submitted via: Feurio! 1.68 - http://www.feurio.com
#
DISCID=ee0f1f10
DTITLE=BBC Blues Sessions   Volume 2 - Michael Messer, James Hunter, Marcia 
DTITLE=Ball, Mary Flower  
DYEAR=1900
DGENRE=
TTITLE0=Michael Messer - Take Me Back
TTITLE1=Michael Messer - Sunflower River
TTITLE2=Michael Messer - Lucky Charms (Broadcast 3rd August 2006)
TTITLE3=Michael Messer - Son House (Broadcast 5th October 2006)
TTITLE4=James Hunter - People Gonna Talk (Broadcast 31st August 2006)
TTITLE5=James Hunter - I'll Walk Away (Broadcast 31st August 2006)
TTITLE6=James Hunter - Talkin' 'Bout My Love (Broadcast 31st August 2006)
TTITLE7=James Hunter - No Smoke Without Fire (Broadcast On Andy Kershaw Show 
TTITLE7=3rd September 2006)
TTITLE8=James Hunter - Watch and Chain (Broadcast On Andy Kershaw Show 3rd 
TTITLE8=September 2006)
TTITLE9=James Hunter - Kick It Around (Broadcast 12th October 2006)
TTITLE10=Marcia Ball - Sparkle Paradise - Cambridge Folk Festival 2006
TTITLE11=Marcia Ball - Mobileual Jones
TTITLE12=Marcia Ball - Louisiana 1927
TTITLE13=Marcia Ball - That's Enough Of That Stuff
TTITLE14=Mary Flower - River Of Joy
TTITLE15=Mary Flower - The Backwater Blues
EXTD=
EXTT0=
EXTT1=
EXTT2=
EXTT3=
EXTT4=
EXTT5=
EXTT6=
EXTT7=
EXTT8=
EXTT9=
EXTT10=
EXTT11=
EXTT12=
EXTT13=
EXTT14=
EXTT15=
PLAYORDER=
